Coordinates
version=1
nRows=10
nColumns=40
inDegrees=yes

Units are S.I. units (second, meters, Newtons, ...)
Angles are in degrees.

endheader
time	pelvis_tilt	pelvis_list	pelvis_rotation	pelvis_tx	pelvis_ty	pelvis_tz	hip_flexion_r	hip_adduction_r	hip_rotation_r	knee_angle_r	knee_angle_r_beta	ankle_angle_r	subtalar_angle_r	mtp_angle_r	hip_flexion_l	hip_adduction_l	hip_rotation_l	knee_angle_l	knee_angle_l_beta	ankle_angle_l	subtalar_angle_l	mtp_angle_l	lumbar_extension	lumbar_bending	lumbar_rotation	arm_flex_r	arm_add_r	arm_rot_r	elbow_flex_r	pro_sup_r	wrist_flex_r	wrist_dev_r	arm_flex_l	arm_add_l	arm_rot_l	elbow_flex_l	pro_sup_l	wrist_flex_l	wrist_dev_l
      0.00000000	     -0.26396850	      0.75555913	      0.42462425	     -1.21836440	      0.88136862	      1.45755336	     -8.98666879	     -2.90664242	    -13.26164642	    -22.65887040	     -0.39547189	     14.16055843	      6.40355513	     -9.84907073	     23.81252660	      0.76018786	     11.48530370	    -13.54812689	     -0.23645942	     -4.25158051	     -0.91881419	     -9.14455312	    -12.30616992	      0.22963322	      6.74133442	     13.61940521	    -11.16652688	     24.91472630	     20.90420884	     89.95437384	      0.00000000	      0.00000000	     -2.28008989	      4.07878338	    -10.63886700	     15.29119251	     89.95437384	      0.00000000	      0.00000000
      0.01000000	     -0.49120283	      0.73711482	      0.30658967	     -1.21003968	      0.88095086	      1.45622895	     -8.99311085	     -3.02977774	    -12.96594473	    -23.15567459	     -0.40414276	     13.75314707	      6.18653530	     -9.63711600	     23.71237674	      0.69863398	     11.25371578	    -14.10067263	     -0.24610316	     -4.28463167	     -0.84225911	     -8.93726471	    -11.98292736	      0.22879092	      6.59938034	     13.22252695	    -11.22775397	     24.82692914	     21.09548479	     89.95437384	      0.00000000	      0.00000000	     -2.31837712	      4.34919991	    -10.57276489	     15.58730497	     89.95437384	      0.00000000	      0.00000000
      0.02000000	     -0.35823037	      0.82662777	     -0.00473346	     -1.20168244	      0.88136638	      1.45509871	     -9.30446918	     -3.32748780	    -12.46765093	    -23.75911306	     -0.41467475	     13.04306730	      6.01504717	     -9.45449868	     23.23818304	      0.60066321	     11.30768176	    -14.67744326	     -0.25616971	     -4.65443291	     -0.28544437	     -8.67549938	    -12.04134958	      0.06269637	      6.56277518	     13.26658645	    -11.05322150	     24.97437598	     20.29877632	     89.95437384	      0.00000000	      0.00000000	     -1.85598030	      4.54218990	    -10.89693898	     14.95019652	     89.95437384	      0.00000000	      0.00000000
      0.03000000	     -0.39343087	      1.06184310	     -0.33430472	     -1.19335902	      0.88175894	      1.45384159	     -9.33397577	     -3.79044546	    -11.84770620	    -24.47841052	     -0.42722886	     11.90977820	      5.61834578	     -9.14065178	     22.90932688	      0.32411664	     11.31636144	    -14.98239470	     -0.26149212	     -5.73781706	      0.41136701	     -8.21578092	    -11.95372590	     -0.26328000	      6.56031225	     13.03761037	    -11.00704985	     24.97528612	     20.12990851	     89.95437384	      0.00000000	      0.00000000	     -1.69500279	      4.90729436	    -11.01993906	     15.17806701	     89.95437384	      0.00000000	      0.00000000
      0.04000000	     -0.24450521	      1.64911800	     -0.71651861	     -1.18447842	      0.88275716	      1.45227141	     -9.58116501	     -4.67887912	    -11.25823852	    -25.18926785	     -0.43963566	     10.93180597	      4.77867892	     -8.78065166	     21.88976782	     -0.47361532	     11.01427391	    -14.31059439	     -0.24976699	     -6.25862978	      1.61953230	     -7.94592992	    -12.02953509	     -0.96671845	      6.57209818	     12.71355486	    -10.95398293	     24.68155899	     20.00923237	     89.95437384	      0.00000000	      0.00000000	     -1.52084189	      5.31497389	    -11.60255030	     15.38623340	     89.95437384	      0.00000000	      0.00000000
      0.05000000	     -0.45600330	      1.65178600	     -0.72834313	     -1.17572384	      0.88310995	      1.45078599	     -9.51048831	     -4.79537099	    -10.89382695	    -25.81465372	     -0.45055070	     10.41629466	      4.60936488	     -8.56931072	     21.86686881	     -0.51863176	     10.81222600	    -14.75509314	     -0.25752496	     -6.24604616	      1.58178369	     -7.76497949	    -11.72955077	     -1.01441769	      6.28982765	     12.23748661	    -10.99254570	     24.57814412	     20.22832717	     89.95437384	      0.00000000	      0.00000000	     -1.43624650	      5.69344170	    -11.51169365	     15.73042784	     89.95437384	      0.00000000	      0.00000000
      0.06000000	     -0.52224935	      1.91623330	     -0.92679228	     -1.16755621	      0.88400745	      1.44907665	     -9.03487133	     -5.32618987	    -10.23392367	    -27.31041797	     -0.47665671	      8.68920291	      4.20286221	     -8.19273220	     21.51310038	     -0.85629658	     10.86817512	    -14.91373639	     -0.26029380	     -6.07079634	      1.66237828	     -7.59463409	    -11.67143037	     -1.33548003	      5.95303878	     12.19909711	    -10.82865270	     24.54068114	     19.78622273	     89.95437384	      0.00000000	      0.00000000	     -1.00656660	      5.94157612	    -11.75236480	     15.44740815	     89.95437384	      0.00000000	      0.00000000
      0.07000000	     -0.64553512	      2.23746899	     -1.01821287	     -1.15797110	      0.88476435	      1.44730974	     -8.72781166	     -5.94452803	    -10.15964399	    -28.51862476	     -0.49774390	      7.03932099	      3.57312247	     -7.76386549	     21.11409329	     -1.30344384	     10.95495096	    -15.11395064	     -0.26378820	     -5.62733617	      1.82433906	     -7.46995245	    -11.32026161	     -1.71903463	      5.71845107	     11.79315999	    -10.70529642	     24.37547322	     19.43888147	     89.95437384	      0.00000000	      0.00000000	     -0.74878995	      6.28762561	    -12.09796470	     15.32793893	     89.95437384	      0.00000000	      0.00000000
      0.08000000	     -0.81138991	      2.75229315	     -1.11222288	     -1.14885670	      0.88572079	      1.44526035	     -8.18223646	     -6.77023099	     -9.89913692	    -29.97974838	     -0.52324532	      5.43074167	      2.57532254	     -6.68335146	     20.57266493	     -2.22289336	      9.93609175	    -14.92792030	     -0.26054136	     -5.02200814	      3.54149788	     -7.19797206	    -10.97674747	     -2.29477036	      5.61382013	     11.27388669	    -10.54190804	     23.15618538	     19.23730418	     89.95437384	      0.00000000	      0.00000000	     -0.50115938	      6.96247110	    -14.70293931	     15.69253144	     89.95437384	      0.00000000	      0.00000000
      0.09000000	     -0.83231631	      2.85165617	     -1.04751674	     -1.13988078	      0.88691072	      1.44328247	     -7.71272327	     -7.04922579	     -9.53012415	    -31.53143395	     -0.55032734	      3.92127990	      2.27075724	     -6.32601865	     20.18977682	     -2.48731493	      9.64291064	    -15.41149887	     -0.26898140	     -4.46289851	      3.18632020	     -7.10653929	    -10.87248860	     -2.42229086	      5.10859952	     10.93543913	    -10.50852982	     23.08370097	     19.21577684	     89.95437384	      0.00000000	      0.00000000	     -0.20663692	      7.25815887	    -14.80179966	     15.75033643	     89.95437384	      0.00000000	      0.00000000
